<?xml version="1.0" encoding="UTF-8"?>
<svg version="1.1" xmlns="http://www.w3.org/2000/svg" width="180" height="180">
<path d="M0 0 C59.4 0 118.8 0 180 0 C180 59.4 180 118.8 180 180 C120.6 180 61.2 180 0 180 C0 120.6 0 61.2 0 0 Z " fill="#010101" transform="translate(0,0)"/>
<path d="M0 0 C8.09122328 6.10595406 15.05373778 18.53380061 18.890625 27.84765625 C19.77024075 29.63946773 19.77024075 29.63946773 21.84765625 29.8984375 C22.605625 29.90875 23.36359375 29.9190625 24.14453125 29.9296875 C28.73684854 30.26985915 31.4254402 31.21443238 34.89453125 34.4296875 C35.6138042 36.74734479 36.28552055 39.08064624 36.89453125 41.4296875 C38.71154983 42.83823416 38.71154983 42.83823416 40.89453125 43.4296875 C43.01953125 44.1796875 43.01953125 44.1796875 44.89453125 45.4296875 C45.58711354 47.42086158 46.2520076 49.4218011 46.89453125 51.4296875 C49.21803872 54.2029061 50.4386333 55.27772152 53.89453125 56.4296875 C55.3703974 56.54656088 56.85159737 56.60470492 58.33203125 56.6171875 C59.09386719 56.63136719 59.85570313 56.64554688 60.640625 56.66015625 C63.16779045 56.40174592 64.74878157 55.77372851 66.89453125 54.4296875 C67.38953125 53.4396875 67.38953125 53.4396875 67.89453125 52.4296875 C69.63671875 51.39453125 69.63671875 51.39453125 71.76953125 50.3671875 C72.46820313 50.02558594 73.166875 49.68398437 73.88671875 49.33203125 C78.43819533 47.28652329 78.43819533 47.28652329 82.08203125 48.4296875 C86.67673858 49.63485664 89.26673341 49.35524707 93.89453125 48.4296875 C97.14303102 46.70742254 97.14303102 46.70742254 97.89453125 43.4296875 C99.54453125 44.0896875 101.19453125 44.7496875 102.89453125 45.4296875 C103.15234375 44.88957031 103.41015625 44.34945312 103.67578125 43.79296875 C104.89453125 41.4296875 104.89453125 41.4296875 106.55078125 38.78515625 C112.90959282 27.85931688 113.41651765 16.88379272 113.89453125 4.4296875 C120.45489674 10.34815985 122.29473178 17.1768982 123.28125 25.81640625 C123.52441398 32.9017015 122.8415275 39.38925677 118.89453125 45.4296875 C115.87900167 48.34986437 112.64113131 50.55638747 108.89453125 52.4296875 C109.22453125 54.7396875 109.55453125 57.0496875 109.89453125 59.4296875 C109.08048828 59.77580078 109.08048828 59.77580078 108.25 60.12890625 C103.71970422 62.19406811 100.92673107 63.64804086 98.89453125 68.4296875 C98.81203125 69.1309375 98.72953125 69.8321875 98.64453125 70.5546875 C97.89453125 72.4296875 97.89453125 72.4296875 94.39453125 74.0546875 C92.66203125 74.7353125 92.66203125 74.7353125 90.89453125 75.4296875 C89.4502227 78.31830459 89.51764619 80.22616451 89.89453125 83.4296875 C92.07310943 86.09239417 93.85336497 87.97034944 97.01953125 89.3671875 C98.89453125 90.4296875 98.89453125 90.4296875 100.20703125 93.3046875 C101.96689578 96.56369589 102.4053825 96.92018159 105.51953125 98.4296875 C106.63328125 99.0896875 107.74703125 99.7496875 108.89453125 100.4296875 C109.58203125 103.5546875 109.58203125 103.5546875 109.89453125 106.4296875 C111.62615088 107.79609648 111.62615088 107.79609648 113.89453125 108.4296875 C115.54453125 109.0896875 117.19453125 109.7496875 118.89453125 110.4296875 C118.89453125 119.3396875 118.89453125 128.2496875 118.89453125 137.4296875 C116.58453125 137.4296875 114.27453125 137.4296875 111.89453125 137.4296875 C111.56453125 135.4496875 111.23453125 133.4696875 110.89453125 131.4296875 C108.91453125 131.4296875 106.93453125 131.4296875 104.89453125 131.4296875 C104.724375 130.73101562 104.55421875 130.03234375 104.37890625 129.3125 C104.01539063 127.94738281 104.01539063 127.94738281 103.64453125 126.5546875 C103.29648437 125.19730469 103.29648437 125.19730469 102.94140625 123.8125 C101.66237349 120.90126872 100.77751292 120.58817004 97.89453125 119.4296875 C96.61724441 118.5009992 95.34689947 117.56272015 94.08203125 116.6171875 C79.37739975 106.76604549 59.77048256 104.89857404 42.50292969 105.09350586 C40.26330737 105.11725349 38.02487441 105.11401215 35.78515625 105.10742188 C19.42266026 105.13860028 2.89216246 106.31923792 -10.10546875 117.4296875 C-13.45293167 121.54526514 -14.86370042 126.3591335 -16.10546875 131.4296875 C-18.08546875 131.4296875 -20.06546875 131.4296875 -22.10546875 131.4296875 C-22.10546875 133.4096875 -22.10546875 135.3896875 -22.10546875 137.4296875 C-24.74546875 137.4296875 -27.38546875 137.4296875 -30.10546875 137.4296875 C-30.64170875 81.02136468 -30.64170875 81.02136468 -24.10546875 63.4296875 C-23.43390728 61.43132576 -22.7659403 59.43174189 -22.10546875 57.4296875 C-22.76546875 57.4296875 -23.42546875 57.4296875 -24.10546875 57.4296875 C-24.18796875 58.6259375 -24.27046875 59.8221875 -24.35546875 61.0546875 C-24.88805349 65.34579884 -26.36017715 68.03844494 -29.10546875 71.4296875 C-33.16748689 74.13769959 -36.34055799 73.95097688 -41.10546875 73.4296875 C-44.59425716 72.20215084 -46.48698211 71.13348264 -48.91796875 68.3671875 C-52.82314445 58.70701603 -50.7217594 48.89459526 -47.10546875 39.4296875 C-42.37990808 28.86874568 -36.61804539 18.9736849 -30.10546875 9.4296875 C-29.61409424 8.67308838 -29.12271973 7.91648926 -28.61645508 7.13696289 C-22.1959774 -2.66134218 -10.34751263 -5.91869559 0 0 Z " fill="#D7D7D7" transform="translate(55.10546875,22.5703125)"/>
<path d="M0 0 C0.66 0.33 1.32 0.66 2 1 C3.58425639 0.9686568 5.16791772 0.90119249 6.75 0.8125 C11.63833539 0.77011559 14.31155757 1.58819075 18 5 C18.33 5.886875 18.66 6.77375 19 7.6875 C19.33 8.450625 19.66 9.21375 20 10 C21.98645776 10.40632091 23.99053778 10.72949547 26 11 C30.28659845 13.3534266 33.09114841 15.43996565 35 20 C35.1875 23.8125 35.1875 23.8125 35 27 C36.36125 27.433125 36.36125 27.433125 37.75 27.875 C41 29 41 29 42.85058594 30.05810547 C45.57472505 31.25185021 47.67195112 31.22689414 50.640625 31.1953125 C52.24550781 31.18564453 52.24550781 31.18564453 53.8828125 31.17578125 C54.99398437 31.15902344 56.10515625 31.14226562 57.25 31.125 C58.37664062 31.11597656 59.50328125 31.10695313 60.6640625 31.09765625 C63.44292365 31.07410658 66.2213539 31.0412168 69 31 C69.13486816 30.21665283 69.26973633 29.43330566 69.40869141 28.6262207 C70.30679622 24.63740424 72.46813844 22.9361501 75.546875 20.39453125 C79.93164382 17.90191586 84.13600164 18.19554085 89 19 C94.22893871 20.71128903 96.35816017 23.22436646 99 28 C99 28.66 99 29.32 99 30 C99.58007812 30.09796875 100.16015625 30.1959375 100.7578125 30.296875 C108.76359731 31.82933546 113.27037404 34.94727048 118.36328125 41.203125 C120.67102554 43.73668675 123.33496837 45.60056515 126.10546875 47.59765625 C130.45300291 50.81572793 133.3655793 53.79957051 135 59 C138.3 59 141.6 59 145 59 C145 62.3 145 65.6 145 69 C142.69 69 140.38 69 138 69 C137.67 67.02 137.34 65.04 137 63 C135.02 63 133.04 63 131 63 C130.82984375 62.30132812 130.6596875 61.60265625 130.484375 60.8828125 C130.24203125 59.97273438 129.9996875 59.06265625 129.75 58.125 C129.51796875 57.22007812 129.2859375 56.31515625 129.046875 55.3828125 C127.76784224 52.47158122 126.88298167 52.15848254 124 51 C122.72271316 50.0713117 121.45236822 49.13303265 120.1875 48.1875 C105.4828685 38.33635799 85.87595131 36.46888654 68.60839844 36.66381836 C66.36877612 36.68756599 64.13034316 36.68432465 61.890625 36.67773438 C45.52812901 36.70891278 28.99763121 37.88955042 16 49 C12.65253708 53.11557764 11.24176833 57.929446 10 63 C8.02 63 6.04 63 4 63 C4 64.98 4 66.96 4 69 C1.36 69 -1.28 69 -4 69 C-4.49645558 16.77669142 -4.49645558 16.77669142 0 0 Z " fill="#BBBBBB" transform="translate(29,91)"/>
<path d="M0 0 C7.52268284 3.79633064 7.52268284 3.79633064 9.4375 8.625 C9.623125 9.73875 9.80875 10.8525 10 12 C10.495 13.485 10.495 13.485 11 15 C12.98 15.33 14.96 15.66 17 16 C17.103125 15.401875 17.20625 14.80375 17.3125 14.1875 C18.13315798 11.57631553 18.74261495 10.55681728 21 9 C25.07794425 8.57521414 26.53076119 8.68717413 30 11 C30.58203125 13.09375 30.58203125 13.09375 30.8125 15.5 C30.90144531 16.2940625 30.99039063 17.088125 31.08203125 17.90625 C31 20 31 20 29 22 C28.01 20.02 27.02 18.04 26 16 C24.35 16.33 22.7 16.66 21 17 C20.66574265 19.37374861 20.66574265 19.37374861 21 22 C22.9004467 23.84315671 22.9004467 23.84315671 25 25 C24.01 25.66 23.02 26.32 22 27 C22 27.99 22 28.98 22 30 C23.65 30 25.3 30 27 30 C27 29.34 27 28.68 27 28 C28.65 27.34 30.3 26.68 32 26 C32 28.31 32 30.62 32 33 C34.42811925 27.17251381 34.61727907 21.2242509 35 15 C43.96500535 25.58591034 50.85912839 40.06590697 51.4375 54.0625 C50.99471433 58.04757102 50.58132065 59.97362407 48 63 C45.2740902 65.13652389 43.41866266 65.93022289 40 66.5 C35.93216778 65.82202796 34.57434134 64.14641719 32 61 C30.6875 58.6875 30.6875 58.6875 30 57 C29.01 57.66 28.02 58.32 27 59 C25.875 55.25 25.875 55.25 27 53 C26.01 53 25.02 53 24 53 C24.66666667 49.66666667 25.33333333 46.33333333 26 43 C25.34 43 24.68 43 24 43 C23.9175 43.721875 23.835 44.44375 23.75 45.1875 C22.8051902 48.73053674 21.66545287 50.47483413 19 53 C15.25 53.8125 15.25 53.8125 12 54 C9.16625119 50.79663178 8.4794463 48.21912747 8 44 C7.01 43.67 6.02 43.34 5 43 C8.28976808 41.90341064 9.71303767 42.20046862 13 43 C13 41.35 13 39.7 13 38 C12.01 37.67 11.02 37.34 10 37 C8.875 31.25 8.875 31.25 10 29 C9.01 29.33 8.02 29.66 7 30 C7 29.34 7 28.68 7 28 C5.88625 27.690625 4.7725 27.38125 3.625 27.0625 C-0 26 -0 26 -2 25 C-2 24.34 -2 23.68 -2 23 C-2.99 23.33 -3.98 23.66 -5 24 C-4.67 23.01 -4.34 22.02 -4 21 C-4.39397335 18.36195411 -4.39397335 18.36195411 -5 16 C-5.3762606 22.57410881 -5.57982163 28.35021393 -3 34.5 C0.45864142 42.94351606 -0.01326763 51.67741716 -3.05078125 60.1953125 C-4.14030632 62.26675522 -5.16809188 63.53972002 -7 65 C-11.68300074 65.90638724 -15.35316375 66.30692269 -20 65 C-20.495 65.99 -20.495 65.99 -21 67 C-25.15677288 61.90460098 -26.30845334 57.57176976 -26 51 C-23.66902156 33.17605282 -13.35288553 12.17468974 0 0 Z " fill="#E6E6E7" transform="translate(30,27)"/>
<path d="M0 0 C0.66 0.33 1.32 0.66 2 1 C3.58425639 0.9686568 5.16791772 0.90119249 6.75 0.8125 C11.63833539 0.77011559 14.31155757 1.58819075 18 5 C18.33 5.886875 18.66 6.77375 19 7.6875 C19.33 8.450625 19.66 9.21375 20 10 C21.98645776 10.40632091 23.99053778 10.72949547 26 11 C30.28659845 13.3534266 33.09114841 15.43996565 35 20 C35.1875 23.8125 35.1875 23.8125 35 27 C35.928125 27.28875 36.85625 27.5775 37.8125 27.875 C41 29 41 29 44 31 C44 31.66 44 32.32 44 33 C42.75605469 33.27972656 41.51210937 33.55945313 40.23046875 33.84765625 C29.48773382 36.38951707 20.04314414 38.95685586 12 47 C9.5625 46.9375 9.5625 46.9375 7 46 C4.79029126 43.10451959 4 41.66842255 4 38 C3.071875 37.814375 3.071875 37.814375 2.125 37.625 C-0 37 -0 37 -2 35 C-2.66 36.32 -3.32 37.64 -4 39 C-4.11756292 32.06752014 -3.80073197 25.27351747 -3.125 18.375 C-3.04636719 17.48554687 -2.96773437 16.59609375 -2.88671875 15.6796875 C-2.37004433 10.27447821 -1.45163307 5.23319819 0 0 Z " fill="#565656" transform="translate(29,91)"/>
<path d="M0 0 C-0.90404792 3.34497732 -1.69617615 4.77213211 -4.5 6.875 C-9.72520315 8.55452959 -14.89168199 7.98248129 -20.11328125 6.33203125 C-22.32502476 5.72461369 -22.32502476 5.72461369 -25.0625 7.9375 C-26.5165625 8.9584375 -26.5165625 8.9584375 -28 10 C-28.99 10 -29.98 10 -31 10 C-31.268125 10.639375 -31.53625 11.27875 -31.8125 11.9375 C-33 14 -33 14 -36 15 C-43.04504991 15.68603482 -46.79731451 14.59677202 -52.3125 10.125 C-54.35880647 7.54816963 -54.35664999 6.20984995 -54 3 C-54.556875 2.938125 -55.11375 2.87625 -55.6875 2.8125 C-59.03960959 1.63473177 -60.69785114 -0.33435396 -63 -3 C-63.33 -3.86625 -63.66 -4.7325 -64 -5.625 C-65.33598021 -8.79795301 -66.96886258 -9.48443129 -70 -11 C-71.33333333 -11.66666667 -72.66666667 -12.33333333 -74 -13 C-48.81454827 -16.10657554 -21.54103274 -14.68159773 0 0 Z " fill="#515151" transform="translate(154,65)"/>
<path d="M0 0 C8.96500535 10.58591034 15.85912839 25.06590697 16.4375 39.0625 C15.99471433 43.04757102 15.58132065 44.97362407 13 48 C10.2740902 50.13652389 8.41866266 50.93022289 5 51.5 C0.93216778 50.82202796 -0.42565866 49.14641719 -3 46 C-4.3125 43.6875 -4.3125 43.6875 -5 42 C-5.99 42.66 -6.98 43.32 -8 44 C-9.125 40.25 -9.125 40.25 -8 38 C-8.99 38 -9.98 38 -11 38 C-10.33333333 34.66666667 -9.66666667 31.33333333 -9 28 C-9.66 28 -10.32 28 -11 28 C-11.0825 28.721875 -11.165 29.44375 -11.25 30.1875 C-12.1948098 33.73053674 -13.33454713 35.47483413 -16 38 C-19.75 38.8125 -19.75 38.8125 -23 39 C-25.83374881 35.79663178 -26.5205537 33.21912747 -27 29 C-27.99 28.67 -28.98 28.34 -30 28 C-26.71023192 26.90341064 -25.28696233 27.20046862 -22 28 C-22 26.35 -22 24.7 -22 23 C-22.99 22.67 -23.98 22.34 -25 22 C-25.625 19.125 -25.625 19.125 -26 16 C-24 14 -24 14 -21 13.75 C-18 14 -18 14 -16 16 C-16.375 19.625 -16.375 19.625 -17 23 C-13.09380015 24.25556424 -10.63177916 23.81588958 -7 22 C-7 23.65 -7 25.3 -7 27 C-2.96158549 17.95987945 -0.03753473 10.07807489 0 0 Z " fill="#676767" transform="translate(65,42)"/>
<path d="M0 0 C2.5703291 2.5703291 2.47528474 4.47691184 3 8 C3.33 8.33 3.66 8.66 4 9 C4 9.66 4 10.32 4 11 C7.3 11.66 10.6 12.32 14 13 C14 13.66 14 14.32 14 15 C14.66 14.67 15.32 14.34 16 14 C18.3329866 13.95977609 20.66706666 13.95679753 23 14 C23 14.33 23 14.66 23 15 C20.69 15.66 18.38 16.32 16 17 C16.34227572 19.97065509 16.34227572 19.97065509 17 23 C17.66 23.33 18.32 23.66 19 24 C19 25.65 19 27.3 19 29 C16.69 29 14.38 29 12 29 C12.6496875 29.5259375 12.6496875 29.5259375 13.3125 30.0625 C15.68358456 32.78485635 16.6716835 35.64758216 18 39 C20.31 39 22.62 39 25 39 C25.28875 38.4225 25.5775 37.845 25.875 37.25 C27.25 34.5 28.625 31.75 30 29 C30.66 29 31.32 29 32 29 C32.22036864 32.85645121 31.60355101 35.49223216 30 39 C30.99 39 31.98 39 33 39 C33.495 41.475 33.495 41.475 34 44 C34.66 43.34 35.32 42.68 36 42 C37.06096463 43.57046743 38.09826235 45.15694517 39.125 46.75 C39.70507812 47.63171875 40.28515625 48.5134375 40.8828125 49.421875 C42 52 42 52 41.2421875 54.203125 C40.83226562 54.79609375 40.42234375 55.3890625 40 56 C39.505 56.99 39.505 56.99 39 58 C37.68 57.67 36.36 57.34 35 57 C35 57.66 35 58.32 35 59 C36.32 59.66 37.64 60.32 39 61 C38.67 62.32 38.34 63.64 38 65 C37.01 64.5978125 37.01 64.5978125 36 64.1875 C33.19613627 63.0277531 33.19613627 63.0277531 31.02734375 62.41015625 C25.72002408 60.73363845 23.91695275 58.89631355 21 54 C17.76794998 51.82846639 15.08090074 51.78378808 11.25 51.875 C10.26515625 51.89304688 9.2803125 51.91109375 8.265625 51.9296875 C7.51796875 51.95289063 6.7703125 51.97609375 6 52 C6.54855348 47.428721 7.41744803 43.32564205 9 39 C8.34 39 7.68 39 7 39 C6.9175 40.19625 6.835 41.3925 6.75 42.625 C6.21741526 46.91611134 4.7452916 49.60875744 2 53 C-1.10986207 55.07324138 -1.89108387 55.27392186 -5.4375 55.25 C-6.19933594 55.25515625 -6.96117187 55.2603125 -7.74609375 55.265625 C-10.21443018 54.9747292 -11.857686 54.22975656 -14 53 C-14 52.34 -14 51.68 -14 51 C-13.00419922 51.05220703 -13.00419922 51.05220703 -11.98828125 51.10546875 C-8.10353913 51.22456303 -4.78512649 51.25057228 -1.0625 50.0625 C3.6753226 45.3246774 4.20690122 39.08176591 4.4375 32.625 C4.32835655 27.07794474 3.01859804 23.04596365 0.890625 17.98828125 C-0.85191993 12.14158445 -0.29357936 6.04284186 0 0 Z " fill="#F2F0F0" transform="translate(24,41)"/>
<path d="M0 0 C6.03552454 6.03552454 6.97983424 16.89236682 8 25 C8.11214844 25.85980469 8.22429687 26.71960938 8.33984375 27.60546875 C9.27213876 36.04720849 9.08946913 44.52031444 9 53 C5.59687262 51.94124926 2.98646769 50.99097846 0 49 C-0.6875 45.875 -0.6875 45.875 -1 43 C-1.556875 42.938125 -2.11375 42.87625 -2.6875 42.8125 C-6.027159 41.6391063 -7.71500747 39.65553186 -10 37 C-10.144375 36.278125 -10.28875 35.55625 -10.4375 34.8125 C-10.623125 34.214375 -10.80875 33.61625 -11 33 C-11.928125 32.690625 -12.85625 32.38125 -13.8125 32.0625 C-17.7055673 30.7648109 -18.92691848 29.5082918 -21 26 C-21.5625 23 -21.5625 23 -21 20 C-18.75 17.125 -18.75 17.125 -16 15 C-14.68 15 -13.36 15 -12 15 C-11.9071875 13.6696875 -11.9071875 13.6696875 -11.8125 12.3125 C-10.54559817 7.1474387 -7.30058803 4.86705868 -3 2 C-2.01 2 -1.02 2 0 2 C0 1.34 0 0.68 0 0 Z " fill="#4D4D4D" transform="translate(165,80)"/>
<path d="M0 0 C0.33 0 0.66 0 1 0 C1.14695312 1.21623047 1.14695312 1.21623047 1.296875 2.45703125 C2.05952747 8.10460426 2.92721916 13.22376727 5.125 18.5 C8.41982964 26.96536754 7.97592697 35.70771802 4.94921875 44.1953125 C3.86154865 46.2632285 2.82002354 47.53266045 1 49 C-3.9906447 50.22720771 -5.84223979 50.61045539 -10.4375 48.1875 C-13.28720492 45.75482507 -13.9005718 45.07741047 -14.23828125 41.41796875 C-14.56828036 27.05432328 -9.41707712 11.16401316 0 0 Z " fill="#8F8F8F" transform="translate(22,43)"/>
<path d="M0 0 C5.22893871 1.71128903 7.35816017 4.22436646 10 9 C10 9.66 10 10.32 10 11 C10.58007812 11.09796875 11.16015625 11.1959375 11.7578125 11.296875 C19.76359731 12.82933546 24.27037404 15.94727048 29.36328125 22.203125 C31.67102554 24.73668675 34.33496837 26.60056515 37.10546875 28.59765625 C41.45300291 31.81572793 44.3655793 34.79957051 46 40 C49.3 40 52.6 40 56 40 C56 43.3 56 46.6 56 50 C53.69 50 51.38 50 49 50 C48.505 47.03 48.505 47.03 48 44 C46.02 44 44.04 44 42 44 C41.82984375 43.30132812 41.6596875 42.60265625 41.484375 41.8828125 C41.24203125 40.97273438 40.9996875 40.06265625 40.75 39.125 C40.40195313 37.76761719 40.40195313 37.76761719 40.046875 36.3828125 C38.76784224 33.47158122 37.88298167 33.15848254 35 32 C33.72271316 31.0713117 32.45236822 30.13303265 31.1875 29.1875 C25.03729424 24.98761117 18.06956347 23.10503471 11 21 C11.33 19.68 11.66 18.36 12 17 C1.72794239 14.27772325 -8.44489991 13.00693996 -19 12 C-19.27096872 9.03979455 -19.32650903 7.48368243 -17.63671875 4.98046875 C-11.99836485 -0.20591289 -7.54849094 -1.24844873 0 0 Z " fill="#505050" transform="translate(118,110)"/>
<path d="M0 0 C4.8573586 2.68227634 7.79737907 7.06147938 10.875 11.5625 C9.4375 14.125 9.4375 14.125 6.875 16.5625 C4.46210209 16.56685541 2.34741212 16.19538908 -0.00390625 15.6640625 C-2.19644319 15.33447007 -2.19644319 15.33447007 -3.83984375 16.8359375 C-5.32625603 18.6449644 -5.32625603 18.6449644 -6.125 21.5625 C-11.5692344 21.07856805 -11.5692344 21.07856805 -13.875 18.9375 C-15.125 16.5625 -15.125 16.5625 -15.9375 13 C-16.80351926 9.32644638 -16.80351926 9.32644638 -20.125 7.6875 C-21.115 7.31625 -22.105 6.945 -23.125 6.5625 C-23.785 6.2325 -24.445 5.9025 -25.125 5.5625 C-17.74940629 -0.91908235 -9.33907693 -3.93794733 0 0 Z " fill="#808080" transform="translate(53.125,21.4375)"/>
<path d="M0 0 C0.66 0 1.32 0 2 0 C2.22036864 3.85645121 1.60355101 6.49223216 0 10 C0.99 10 1.98 10 3 10 C3.33 11.65 3.66 13.3 4 15 C4.66 14.34 5.32 13.68 6 13 C7.06096463 14.57046743 8.09826235 16.15694517 9.125 17.75 C9.70507812 18.63171875 10.28515625 19.5134375 10.8828125 20.421875 C12 23 12 23 11.2421875 25.203125 C10.83226563 25.79609375 10.42234375 26.3890625 10 27 C9.67 27.66 9.34 28.32 9 29 C7.68 28.67 6.36 28.34 5 28 C5 28.66 5 29.32 5 30 C6.32 30.66 7.64 31.32 9 32 C8.67 33.32 8.34 34.64 8 36 C7.34 35.731875 6.68 35.46375 6 35.1875 C3.19613627 34.0277531 3.19613627 34.0277531 1.02734375 33.41015625 C-4.27997592 31.73363845 -6.08304725 29.89631355 -9 25 C-12.30321138 22.60801935 -16.01633287 22.4596539 -20 22 C-20 21.67 -20 21.34 -20 21 C-11.57142857 19.71428571 -11.57142857 19.71428571 -7 21 C-7 20.34 -7 19.68 -7 19 C-7.66 19 -8.32 19 -9 19 C-9 18.34 -9 17.68 -9 17 C-9.66 16.67 -10.32 16.34 -11 16 C-10.34 15.67 -9.68 15.34 -9 15 C-8.67 14.01 -8.34 13.02 -8 12 C-9.32 11.67 -10.64 11.34 -12 11 C-10.329375 10.87625 -10.329375 10.87625 -8.625 10.75 C-4.99662057 10.42413806 -4.99662057 10.42413806 -3.6875 8.1875 C-3.460625 7.465625 -3.23375 6.74375 -3 6 C-2 4 -1 2 0 0 Z " fill="#E5E4E5" transform="translate(54,70)"/>
<path d="M0 0 C6.56036549 5.91847235 8.40020053 12.7472107 9.38671875 21.38671875 C9.62889266 28.44316533 8.80580038 34.91541791 5 41 C2.859375 42.7734375 2.859375 42.7734375 1 44 C0.54625 43.21625 0.0925 42.4325 -0.375 41.625 C-1.88428742 38.96301969 -1.88428742 38.96301969 -4 37 C-4.66 36.34 -5.32 35.68 -6 35 C-5.73847372 31.9488601 -4.9045993 29.81071289 -3.5234375 27.0703125 C-1.30100493 21.95354914 -1.18490527 16.56658153 -0.8125 11.0625 C-0.73064453 9.99708984 -0.64878906 8.93167969 -0.56445312 7.83398438 C-0.36542967 5.22326489 -0.17759346 2.61224993 0 0 Z " fill="#C9C9C9" transform="translate(169,27)"/>
<path d="M0 0 C0.99 1.32 1.98 2.64 3 4 C3.66 3.01 4.32 2.02 5 1 C5.20086443 4.71599191 5.1519437 5.77208445 3 9 C2.7497843 12.08365871 2.7497843 12.08365871 3 15 C3.33 15.33 3.66 15.66 4 16 C4.99 14.02 5.98 12.04 7 10 C9.3125 10.1875 9.3125 10.1875 12 11 C13.875 13.3125 13.875 13.3125 15 16 C14.5703125 18.16796875 14.5703125 18.16796875 14 20 C8.04296875 21.7578125 8.04296875 21.7578125 6 22 C5.01 21.34 4.02 20.68 3 20 C3 19.34 3 18.68 3 18 C2.01 18.33 1.02 18.66 0 19 C0.33 18.01 0.66 17.02 1 16 C0.60602665 13.36195411 0.60602665 13.36195411 0 11 C-0.33 13.97 -0.66 16.94 -1 20 C-1.33 20 -1.66 20 -2 20 C-2.33 17.36 -2.66 14.72 -3 12 C-6.70961993 17.28339808 -9.29941821 22.7433333 -11.75 28.6875 C-12.05558838 29.42411865 -12.36117676 30.1607373 -12.67602539 30.91967773 C-15.07657321 36.85879591 -16.16943936 42.05474188 -16.3125 48.5 C-16.34988281 49.6034375 -16.38726563 50.706875 -16.42578125 51.84375 C-15.91389645 55.63827215 -14.59566302 57.2558671 -12 60 C-12.99 60 -13.98 60 -15 60 C-15.33 60.66 -15.66 61.32 -16 62 C-20.15677288 56.90460098 -21.30845334 52.57176976 -21 46 C-18.77867581 29.01452969 -9.58121527 13.88080136 0 0 Z " fill="#E1E1E1" transform="translate(25,32)"/>
<path d="M0 0 C3 0.25 3 0.25 5 2.25 C4.625 5.875 4.625 5.875 4 9.25 C7.90619985 10.50556424 10.36822084 10.06588958 14 8.25 C14 9.9 14 11.55 14 13.25 C14.33 13.25 14.66 13.25 15 13.25 C15.24875561 15.51877104 15.47339246 17.79019735 15.6875 20.0625 C15.81511719 21.32707031 15.94273438 22.59164062 16.07421875 23.89453125 C16 27.25 16 27.25 14.51953125 29.19921875 C14.01808594 29.54597656 13.51664063 29.89273438 13 30.25 C11.875 26.5 11.875 26.5 13 24.25 C12.01 24.25 11.02 24.25 10 24.25 C10.66666667 20.91666667 11.33333333 17.58333333 12 14.25 C11.34 14.25 10.68 14.25 10 14.25 C9.9175 14.971875 9.835 15.69375 9.75 16.4375 C8.8051902 19.98053674 7.66545287 21.72483413 5 24.25 C1.25 25.0625 1.25 25.0625 -2 25.25 C-4.83374881 22.04663178 -5.5205537 19.46912747 -6 15.25 C-6.99 14.92 -7.98 14.59 -9 14.25 C-5.71023192 13.15341064 -4.28696233 13.45046862 -1 14.25 C-1 12.6 -1 10.95 -1 9.25 C-1.99 8.92 -2.98 8.59 -4 8.25 C-4.625 5.375 -4.625 5.375 -5 2.25 C-3 0.25 -3 0.25 0 0 Z " fill="#DADDDE" transform="translate(44,55.75)"/>
<path d="M0 0 C4.3826433 0.56550236 7.97278021 2.27022396 11.9140625 4.16015625 C14.08904115 5.18674314 14.08904115 5.18674314 17 5 C18.35824882 6.30794331 19.68456137 7.64900897 21 9 C22.3236871 9.97161362 23.65798286 10.92886547 25 11.875 C28.65864426 14.56437656 30.82841419 17.01875936 33 21 C33 21.66 33 22.32 33 23 C36.3 23 39.6 23 43 23 C43 26.3 43 29.6 43 33 C40.69 33 38.38 33 36 33 C35.505 30.03 35.505 30.03 35 27 C33.02 27 31.04 27 29 27 C28.82984375 26.30132812 28.6596875 25.60265625 28.484375 24.8828125 C28.24203125 23.97273438 27.9996875 23.06265625 27.75 22.125 C27.51796875 21.22007812 27.2859375 20.31515625 27.046875 19.3828125 C25.76784224 16.47158122 24.88298167 16.15848254 22 15 C20.72271316 14.0713117 19.45236822 13.13303265 18.1875 12.1875 C12.03729424 7.98761117 5.06956347 6.10503471 -2 4 C-1.34 2.68 -0.68 1.36 0 0 Z " fill="#939393" transform="translate(131,127)"/>
<path d="M0 0 C6.03689809 2.84759344 7.5087858 4.65872748 10 11 C12.53099205 13.41144481 12.53099205 13.41144481 15 15 C14.34 15 13.68 15 13 15 C13 15.66 13 16.32 13 17 C12.34 17 11.68 17 11 17 C11 17.99 11 18.98 11 20 C11.99 20.33 12.98 20.66 14 21 C12.35 21.33 10.7 21.66 9 22 C8.67 22.99 8.34 23.98 8 25 C5.03 25 2.06 25 -1 25 C-1.02703536 21.77077692 -1.04685642 18.54178154 -1.0625 15.3125 C-1.07087891 14.40048828 -1.07925781 13.48847656 -1.08789062 12.54882812 C-1.09111328 11.66259766 -1.09433594 10.77636719 -1.09765625 9.86328125 C-1.10289307 9.05157471 -1.10812988 8.23986816 -1.11352539 7.40356445 C-0.9929791 4.85135327 -0.559949 2.48973863 0 0 Z " fill="#E8E8E8" transform="translate(26,125)"/>
<path d="M0 0 C7.34338907 3.70584984 7.34338907 3.70584984 8.94140625 6.85546875 C9.38490296 8.5491373 9.70142084 10.27487595 10 12 C10.33 12.33 10.66 12.66 11 13 C11.14115161 15.67058851 11.04247107 18.32432238 11 21 C10.34 21 9.68 21 9 21 C8.54625 20.175 8.0925 19.35 7.625 18.5 C7.08875 17.675 6.5525 16.85 6 16 C4.68 16 3.36 16 2 16 C1.34 17.98 0.68 19.96 0 22 C-0.99 21.34 -1.98 20.68 -3 20 C-3.4671306 15.79582458 -2.78923164 12.80211723 -1 9 C-1.99 9.495 -1.99 9.495 -3 10 C-3.33 7.69 -3.66 5.38 -4 3 C-2.68 2.01 -1.36 1.02 0 0 Z " fill="#F8F8F8" transform="translate(30,27)"/>
<path d="M0 0 C0.99 1.32 1.98 2.64 3 4 C3.66 3.01 4.32 2.02 5 1 C5.20086443 4.71599191 5.1519437 5.77208445 3 9 C2.7497843 12.08365871 2.7497843 12.08365871 3 15 C3.33 15.33 3.66 15.66 4 16 C4.99 14.02 5.98 12.04 7 10 C9.3125 10.1875 9.3125 10.1875 12 11 C13.875 13.3125 13.875 13.3125 15 16 C14.5703125 18.16796875 14.5703125 18.16796875 14 20 C8.04296875 21.7578125 8.04296875 21.7578125 6 22 C5.01 21.34 4.02 20.68 3 20 C3 19.34 3 18.68 3 18 C2.01 18.33 1.02 18.66 0 19 C0.33 18.01 0.66 17.02 1 16 C0.72230092 13.6593935 0.39460023 11.32375692 0 9 C-0.99 9.33 -1.98 9.66 -3 10 C-4 7 -4 7 -3.22265625 5.17578125 C-2.1484375 3.45052083 -1.07421875 1.72526042 0 0 Z " fill="#F0F0F0" transform="translate(25,32)"/>
<path d="M0 0 C2.5 0.0625 2.5 0.0625 5 1 C6.3125 3.5625 6.3125 3.5625 7 6 C8.65 5.67 10.3 5.34 12 5 C12.3690205 15.55808656 12.3690205 15.55808656 10 20 C9.02391783 17.07175348 8.91773332 15.04386724 9 12 C8.34 12.66 7.68 13.32 7 14 C6.34 13.67 5.68 13.34 5 13 C5 13.66 5 14.32 5 15 C3.35 15 1.7 15 0 15 C-0.33 13.68 -0.66 12.36 -1 11 C-0.01 10.67 0.98 10.34 2 10 C1.01 9.4121875 1.01 9.4121875 0 8.8125 C-2 7 -2 7 -2.375 4.4375 C-2 2 -2 2 0 0 Z " fill="#E4E4E4" transform="translate(52,42)"/>
<path d="M0 0 C0.33 0.99 0.66 1.98 1 3 C2.14855469 3.03738281 3.29710938 3.07476562 4.48046875 3.11328125 C24.64553399 3.90778134 24.64553399 3.90778134 32 7 C33.34375 9.10546875 33.34375 9.10546875 34 11 C29.67420231 11.19662717 25.82115025 10.83591993 21.5625 10.03125 C14.95633374 8.89735579 8.44129126 8.56459975 1.75 8.375 C0.61175781 8.33632812 -0.52648437 8.29765625 -1.69921875 8.2578125 C-4.46599779 8.16481152 -7.23279117 8.07897139 -10 8 C-10 7.67 -10 7.34 -10 7 C-3.565 6.505 -3.565 6.505 3 6 C0.88214887 4.88214887 0.88214887 4.88214887 -2 4 C-1.34 4 -0.68 4 0 4 C0 2.68 0 1.36 0 0 Z " fill="#969696" transform="translate(98,119)"/>
<path d="M0 0 C1.98 0 3.96 0 6 0 C5.34 2.64 4.68 5.28 4 8 C2.02 8 0.04 8 -2 8 C-2 9.98 -2 11.96 -2 14 C-4.64 14 -7.28 14 -10 14 C-10 10.7 -10 7.4 -10 4 C-7.03 4 -4.06 4 -1 4 C-0.67 2.68 -0.34 1.36 0 0 Z " fill="#6D6D6D" transform="translate(35,146)"/>
<path d="M0 0 C-2.20622598 2.20622598 -3.65572438 2.71284062 -6.5625 3.75 C-14.41264184 6.8173492 -20.87935146 10.47533745 -25 18 C-26.32 17.67 -27.64 17.34 -29 17 C-29 16.01 -29 15.02 -29 14 C-28.34 14 -27.68 14 -27 14 C-27 12.68 -27 11.36 -27 10 C-24.98828125 8.18359375 -24.98828125 8.18359375 -22.3125 6.4375 C-21.44238281 5.85871094 -20.57226562 5.27992188 -19.67578125 4.68359375 C-12.1712373 -0.03824339 -8.75370631 -1.31305595 0 0 Z " fill="#BEBEBE" transform="translate(66,128)"/>
<path d="M0 0 C3 2 3 2 3.58203125 4.09375 C3.65808594 4.8878125 3.73414063 5.681875 3.8125 6.5 C3.90144531 7.2940625 3.99039063 8.088125 4.08203125 8.90625 C4 11 4 11 2 13 C1.01 11.02 0.02 9.04 -1 7 C-2.65 7.33 -4.3 7.66 -6 8 C-6.33425735 10.37374861 -6.33425735 10.37374861 -6 13 C-4.0995533 14.84315671 -4.0995533 14.84315671 -2 16 C-5.75 17.125 -5.75 17.125 -8 16 C-10.26661606 12.85192214 -10.42485972 9.67030058 -10.3125 5.90625 C-10 4 -10 4 -8.375 1.5 C-5.33326715 -0.42109443 -3.53950857 -0.45185216 0 0 Z " fill="#F7F7F7" transform="translate(57,36)"/>
<path d="M0 0 C1.65 0 3.3 0 5 0 C5.33 0.99 5.66 1.98 6 3 C9.3 3 12.6 3 16 3 C16 6.3 16 9.6 16 13 C13.69 13 11.38 13 9 13 C8.67 11.02 8.34 9.04 8 7 C6.02 7 4.04 7 2 7 C1.34 4.69 0.68 2.38 0 0 Z " fill="#6D6D6D" transform="translate(158,147)"/>
<path d="M0 0 C3 0.25 3 0.25 5 2.25 C4.625 5.375 4.625 5.375 4 8.25 C3.01 8.58 2.02 8.91 1 9.25 C1 10.9 1 12.55 1 14.25 C3.64 13.92 6.28 13.59 9 13.25 C7.2147863 15.52810098 6.35802152 16.19916641 3.44140625 16.61328125 C2.01634766 16.58814453 2.01634766 16.58814453 0.5625 16.5625 C-0.38496094 16.55863281 -1.33242188 16.55476563 -2.30859375 16.55078125 C-5.00589177 16.24934156 -6.68485928 15.62375963 -9 14.25 C-5.71023192 13.15341064 -4.28696233 13.45046862 -1 14.25 C-1 12.6 -1 10.95 -1 9.25 C-1.99 8.92 -2.98 8.59 -4 8.25 C-4.625 5.375 -4.625 5.375 -5 2.25 C-3 0.25 -3 0.25 0 0 Z " fill="#574D4A" transform="translate(44,55.75)"/>
<path d="M0 0 C1.32 0 2.64 0 4 0 C7.25738186 8.8850907 8.55714963 16.54393261 8 26 C7.34 26.33 6.68 26.66 6 27 C5.95101562 26.21753906 5.90203125 25.43507813 5.8515625 24.62890625 C5.77679688 23.61699219 5.70203125 22.60507812 5.625 21.5625 C5.52058594 20.04849609 5.52058594 20.04849609 5.4140625 18.50390625 C5.27742187 17.67761719 5.14078125 16.85132812 5 16 C4.34 15.67 3.68 15.34 3 15 C2.375 12.4375 2.375 12.4375 2 10 C1.01 10.495 1.01 10.495 0 11 C0 7.37 0 3.74 0 0 Z " fill="#C3C3C3" transform="translate(170,32)"/>
<path d="M0 0 C3.40320742 1.01176437 4.75725331 1.64843582 6.8125 4.625 C7.204375 5.40875 7.59625 6.1925 8 7 C6.5625 9.0625 6.5625 9.0625 4 11 C1.61908993 10.93123725 -0.5511512 10.56493052 -2.87890625 10.06640625 C-5.07256026 9.77756627 -5.07256026 9.77756627 -6.71484375 11.27734375 C-8.20187974 13.08261788 -8.20187974 13.08261788 -9 16 C-9.66 15.67 -10.32 15.34 -11 15 C-10.34 13.35 -9.68 11.7 -9 10 C-8.34 10 -7.68 10 -7 10 C-7 9.34 -7 8.68 -7 8 C-5.02 7.34 -3.04 6.68 -1 6 C-0.67 4.02 -0.34 2.04 0 0 Z " fill="#767676" transform="translate(56,27)"/>
<path d="M0 0 C0 0.66 0 1.32 0 2 C-0.53625 2.226875 -1.0725 2.45375 -1.625 2.6875 C-3.75025221 3.86198149 -5.30246801 5.04815247 -7.125 6.625 C-10 9 -10 9 -12 9 C-12.33 8.01 -12.66 7.02 -13 6 C-15.87384077 4.0582157 -18.89931133 2.54042742 -22 1 C-14.63959083 0.20274098 -7.40239645 -0.12886183 0 0 Z " fill="#595959" transform="translate(102,51)"/>
<path d="M0 0 C1.258125 -0.020625 2.51625 -0.04125 3.8125 -0.0625 C4.52019531 -0.07410156 5.22789063 -0.08570312 5.95703125 -0.09765625 C8 0 8 0 11 1 C10.25 7.75 10.25 7.75 8 10 C5.5625 10.0625 5.5625 10.0625 3 9 C0 3.31034483 0 3.31034483 0 0 Z " fill="#D6998F" transform="translate(38,71)"/>
<path d="M0 0 C0.33 0.66 0.66 1.32 1 2 C1.66 2 2.32 2 3 2 C3.33 1.34 3.66 0.68 4 0 C4.33 0.66 4.66 1.32 5 2 C3.65335156 4.9925521 2.56894559 6.65231103 -0.25 8.375 C-3.73910335 9.16797803 -6.51478877 8.68337475 -10 8 C-10.33 6.68 -10.66 5.36 -11 4 C-9.68 4.33 -8.36 4.66 -7 5 C-6.67 3.68 -6.34 2.36 -6 1 C-5.34 1.33 -4.68 1.66 -4 2 C-4 2.99 -4 3.98 -4 5 C-3.34 5 -2.68 5 -2 5 C-2.33 4.01 -2.66 3.02 -3 2 C-2.01 1.34 -1.02 0.68 0 0 Z " fill="#4C4C4C" transform="translate(149,64)"/>
<path d="M0 0 C3.32080666 -0.23168419 5.68081981 -0.12057918 8.8125 1.0625 C11 3 11 3 11.8125 6.6875 C11.874375 7.780625 11.93625 8.87375 12 10 C11.13375 9.505 10.2675 9.01 9.375 8.5 C5.89250377 6.9522239 3.75240542 6.73197104 0 7 C-0.93423645 3.98968256 -1.04449911 3.13349732 0 0 Z " fill="#DBDBDB" transform="translate(89,65)"/>
<path d="M0 0 C3.71888239 0.50712033 6.73454239 1.11608215 10 3 C8.81819916 8.02265357 7.55007718 11.0949151 4 15 C3.34 14.67 2.68 14.34 2 14 C2.47581198 12.68628013 2.95575149 11.37405454 3.4375 10.0625 C3.70433594 9.33160156 3.97117188 8.60070312 4.24609375 7.84765625 C5 6 5 6 6 5 C4.02 5 2.04 5 0 5 C0 3.35 0 1.7 0 0 Z " fill="#EADDD8" transform="translate(45,65)"/>
<path d="M0 0 C0.99 0.33 1.98 0.66 3 1 C3.02578125 1.66386719 3.0515625 2.32773438 3.078125 3.01171875 C3.43351002 8.54441741 3.83118278 11.96566075 8 16 C7.01 16 6.02 16 5 16 C4.67 16.66 4.34 17.32 4 18 C-0.09127809 12.98488492 -1.05810418 8.46118493 -1 2 C-0.67 1.34 -0.34 0.68 0 0 Z " fill="#DFDFDF" transform="translate(5,76)"/>
<path d="M0 0 C1.65 0 3.3 0 5 0 C4.67 0.99 4.34 1.98 4 3 C4.99 4.485 4.99 4.485 6 6 C5.505 6.763125 5.01 7.52625 4.5 8.3125 C2.75631692 10.92363751 2.75631692 10.92363751 3 14 C2.67 13.34 2.34 12.68 2 12 C1.01 12.33 0.02 12.66 -1 13 C-1.02696365 11.20841511 -1.04637917 9.41671527 -1.0625 7.625 C-1.07410156 6.62726563 -1.08570312 5.62953125 -1.09765625 4.6015625 C-1 2 -1 2 0 0 Z " fill="#F7F6F7" transform="translate(31,66)"/>
<path d="M0 0 C2.5703291 2.5703291 2.47528474 4.47691184 3 8 C3.33 8.33 3.66 8.66 4 9 C4 9.66 4 10.32 4 11 C5.32 11.66 6.64 12.32 8 13 C7.67 13.66 7.34 14.32 7 15 C6.34 14.67 5.68 14.34 5 14 C4.67 14.99 4.34 15.98 4 17 C3.01 17.33 2.02 17.66 1 18 C-0.2062252 14.38132441 -0.10816918 11.07493749 -0.0625 7.3125 C-0.05798828 6.61060547 -0.05347656 5.90871094 -0.04882812 5.18554688 C-0.03706927 3.45699462 -0.01913454 1.72848635 0 0 Z " fill="#F9F9F9" transform="translate(24,41)"/>
<path d="M0 0 C2.83994609 2.83994609 2.33354948 4.85397569 2.375 8.8125 C2.40335938 10.03582031 2.43171875 11.25914063 2.4609375 12.51953125 C1.93120543 16.51945734 0.76216816 18.13411406 -2 21 C-3.32 20.34 -4.64 19.68 -6 19 C-5.360625 18.566875 -4.72125 18.13375 -4.0625 17.6875 C-1.73253997 16.08760823 -1.73253997 16.08760823 -1 13 C-0.95593122 11.14635711 -0.96050608 9.29124601 -1 7.4375 C-1.11082803 2.22165605 -1.11082803 2.22165605 0 0 Z " fill="#D0D0D0" transform="translate(81,72)"/>
<path d="M0 0 C4.70588235 0.70588235 4.70588235 0.70588235 6 2 C6.1875 4.4375 6.1875 4.4375 6 7 C5.34 7.66 4.68 8.32 4 9 C0.46428571 8.46428571 0.46428571 8.46428571 -1 7 C-1.125 4 -1.125 4 -1 1 C-0.67 0.67 -0.34 0.34 0 0 Z " fill="#4E4E4E" transform="translate(32,42)"/>
<path d="M0 0 C2.625 0.375 2.625 0.375 5 1 C5.125 3.875 5.125 3.875 5 7 C4.34 7.66 3.68 8.32 3 9 C-0.53571429 8.46428571 -0.53571429 8.46428571 -2 7 C-2.1875 4.5625 -2.1875 4.5625 -2 2 C-1.34 1.34 -0.68 0.68 0 0 Z " fill="#525252" transform="translate(52,42)"/>
<path d="M0 0 C1 3 1 3 0.5 5.4375 C-0.18046001 7.94804866 -0.18046001 7.94804866 0.5625 10.1875 C0.706875 10.785625 0.85125 11.38375 1 12 C0.34 12.66 -0.32 13.32 -1 14 C-1.99 13.67 -2.98 13.34 -4 13 C-4.33 12.34 -4.66 11.68 -5 11 C-4.34 11 -3.68 11 -3 11 C-3.350625 10.4225 -3.70125 9.845 -4.0625 9.25 C-5.14917407 6.64198224 -4.93065133 5.60582371 -4 3 C-3.34 3 -2.68 3 -2 3 C-2 2.34 -2 1.68 -2 1 C-1.34 0.67 -0.68 0.34 0 0 Z " fill="#5D5D5D" transform="translate(78,77)"/>
<path d="M0 0 C0.33 0.66 0.66 1.32 1 2 C1.7425 2.144375 2.485 2.28875 3.25 2.4375 C6.33799444 3.06913523 8.38319437 4.28038487 11 6 C10.67 6.66 10.34 7.32 10 8 C7.93359375 8.4140625 7.93359375 8.4140625 5.4375 8.625 C4.19806641 8.73714844 4.19806641 8.73714844 2.93359375 8.8515625 C1.97646484 8.92503906 1.97646484 8.92503906 1 9 C0.84789062 8.38511719 0.69578125 7.77023438 0.5390625 7.13671875 C0.17391267 5.6893495 -0.21491836 4.24778575 -0.625 2.8125 C-0.74875 2.214375 -0.8725 1.61625 -1 1 C-0.67 0.67 -0.34 0.34 0 0 Z " fill="#C8C8C8" transform="translate(162,127)"/>
<path d="M0 0 C3.465 1.98 3.465 1.98 7 4 C6.01 4.495 6.01 4.495 5 5 C5 6.32 5 7.64 5 9 C4.01 9 3.02 9 2 9 C1.67 9.66 1.34 10.32 1 11 C0.731875 9.865625 0.46375 8.73125 0.1875 7.5625 C-0.204375 6.386875 -0.59625 5.21125 -1 4 C-1.99 3.67 -2.98 3.34 -4 3 C-2.68 2.01 -1.36 1.02 0 0 Z " fill="#EAEAEA" transform="translate(30,27)"/>
<path d="M0 0 C1.98 0 3.96 0 6 0 C4.125 5.875 4.125 5.875 3 7 C1.00041636 7.04080783 -1.00045254 7.04254356 -3 7 C-3.33 6.34 -3.66 5.68 -4 5 C-3.01 5 -2.02 5 -1 5 C-0.67 3.35 -0.34 1.7 0 0 Z " fill="#5C5C5C" transform="translate(35,146)"/>
<path d="M0 0 C0.33 0.66 0.66 1.32 1 2 C2.98 2 4.96 2 7 2 C7 2.33 7 2.66 7 3 C6.24074219 3.20496094 5.48148438 3.40992187 4.69921875 3.62109375 C3.70535156 3.89050781 2.71148437 4.15992187 1.6875 4.4375 C0.70136719 4.70433594 -0.28476563 4.97117187 -1.30078125 5.24609375 C-3.21517526 5.78079425 -5.11433615 6.37144538 -7 7 C-9.6875 6.0625 -9.6875 6.0625 -12 5 C-8.96474514 2.97649676 -7.80573798 2.67875982 -4.3125 2.375 C-3.50425781 2.30023438 -2.69601563 2.22546875 -1.86328125 2.1484375 C-1.24839844 2.09945312 -0.63351563 2.05046875 0 2 C0 1.34 0 0.68 0 0 Z " fill="#B5B5B5" transform="translate(73,122)"/>
<path d="M0 0 C0.33 0 0.66 0 1 0 C1.33 2.97 1.66 5.94 2 9 C2.66 9 3.32 9 4 9 C4 9.66 4 10.32 4 11 C3.34 11 2.68 11 2 11 C1.87625 12.27875 1.7525 13.5575 1.625 14.875 C1.25 18.75 1.25 18.75 -1 21 C-1.99443769 18.01668694 -2.02452065 16.79161241 -1.66015625 13.76953125 C-1.56669922 12.96708984 -1.47324219 12.16464844 -1.37695312 11.33789062 C-1.27318359 10.50451172 -1.16941406 9.67113281 -1.0625 8.8125 C-0.96259766 7.96751953 -0.86269531 7.12253906 -0.75976562 6.25195312 C-0.51242892 4.16725803 -0.25698959 2.08352716 0 0 Z " fill="#D8D8D8" transform="translate(29,69)"/>
<path d="M0 0 C0.33 0.33 0.66 0.66 1 1 C2.32594105 1.36162029 3.65938457 1.69728039 5 2 C2.19096379 3.4045181 -0.18114508 3.13209254 -3.3125 3.125 C-4.44300781 3.12757812 -5.57351562 3.13015625 -6.73828125 3.1328125 C-9.62153596 3.01541051 -12.1990855 2.66212988 -15 2 C-15 1.67 -15 1.34 -15 1 C-10.09961113 -0.30677037 -5.03761016 -0.31718286 0 0 Z " fill="#ADADAD" transform="translate(98,122)"/>
<path d="M0 0 C0.66 1.32 1.32 2.64 2 4 C0.576875 4.928125 0.576875 4.928125 -0.875 5.875 C-3.94445109 7.81970969 -3.94445109 7.81970969 -6 10 C-6.99 9.67 -7.98 9.34 -9 9 C-7.25 5.125 -7.25 5.125 -5 4 C-4.34 3.01 -3.68 2.02 -3 1 C-2.01 1.33 -1.02 1.66 0 2 C0 1.34 0 0.68 0 0 Z " fill="#CDCDCD" transform="translate(160,79)"/>
<path d="M0 0 C3.63 1.32 7.26 2.64 11 4 C8 6 8 6 4.5 5.8125 C1.15645412 5.03631971 -0.01559292 4.68478605 -2 2 C-1.34 1.34 -0.68 0.68 0 0 Z " fill="#959595" transform="translate(12,87)"/>
<path d="M0 0 C1 2 1 2 0.1875 5.5 C-1 9 -1 9 -3 11 C-3.99 10.67 -4.98 10.34 -6 10 C-6 9.01 -6 8.02 -6 7 C-5.34 7 -4.68 7 -4 7 C-4 5.68 -4 4.36 -4 3 C-2 1.25 -2 1.25 0 0 Z " fill="#BEBEBE" transform="translate(43,135)"/>
<path d="M0 0 C1.32 0.33 2.64 0.66 4 1 C4 4.63 4 8.26 4 12 C3.67 12 3.34 12 3 12 C2.67 9.36 2.34 6.72 2 4 C1.01 5.485 1.01 5.485 0 7 C-1.32 6.67 -2.64 6.34 -4 6 C-2.68 4.02 -1.36 2.04 0 0 Z " fill="#DADADA" transform="translate(20,40)"/>
<path d="M0 0 C0.33 1.98 0.66 3.96 1 6 C-1.9375 5.25 -1.9375 5.25 -5 4 C-5.875 1.875 -5.875 1.875 -6 0 C-3.50907189 -1.24546405 -2.58919267 -0.7767578 0 0 Z " fill="#565656" transform="translate(110,74)"/>
<path d="M0 0 C1.9375 1.3125 1.9375 1.3125 3.9375 5.3125 C0.6375 4.9825 -2.6625 4.6525 -6.0625 4.3125 C-5.4025 3.6525 -4.7425 2.9925 -4.0625 2.3125 C-4.3925 1.6525 -4.7225 0.9925 -5.0625 0.3125 C-2.0625 -0.6875 -2.0625 -0.6875 0 0 Z " fill="#EEE8E3" transform="translate(39.0625,64.6875)"/>
<path d="M0 0 C0.28875 0.639375 0.5775 1.27875 0.875 1.9375 C1.82823451 4.15206079 1.82823451 4.15206079 4 5 C4 6.32 4 7.64 4 9 C3.01 9.33 2.02 9.66 1 10 C-0.20882096 12.00016466 -0.20882096 12.00016466 -1 14 C-1.027193 12.41676312 -1.04648306 10.83338938 -1.0625 9.25 C-1.07410156 8.36828125 -1.08570312 7.4865625 -1.09765625 6.578125 C-1.00826198 4.2181162 -0.66912821 2.25501476 0 0 Z " fill="#656565" transform="translate(26,116)"/>
<path d="M0 0 C0.66 0 1.32 0 2 0 C2.33848652 1.89492006 2.67056911 3.79098466 3 5.6875 C3.185625 6.74324219 3.37125 7.79898438 3.5625 8.88671875 C3.95068074 11.64904062 4.08259976 14.21742043 4 17 C3.34 16.67 2.68 16.34 2 16 C1.62109375 14.1875 1.62109375 14.1875 1.4375 12 C1.37334592 9.21067942 1.37334592 9.21067942 0 7 C-0.04092937 4.66702567 -0.04241723 2.33294775 0 0 Z " fill="#595959" transform="translate(169,93)"/>
<path d="M0 0 C0.99 0.33 1.98 0.66 3 1 C1.35 4.3 -0.3 7.6 -2 11 C-2.66 10.67 -3.32 10.34 -4 10 C-3.43454163 6.04179141 -2.19097652 3.3340947 0 0 Z " fill="#F1F1F1" transform="translate(16,47)"/>
<path d="M0 0 C2.64 1.98 5.28 3.96 8 6 C7.67 6.99 7.34 7.98 7 9 C1.25 7.375 1.25 7.375 -1 4 C-0.34 4 0.32 4 1 4 C0.67 2.68 0.34 1.36 0 0 Z " fill="#9B9B9B" transform="translate(146,131)"/>
<path d="M0 0 C0.66 0.99 1.32 1.98 2 3 C1.5624953 4.61540196 1.11126974 6.22869077 0.58203125 7.81640625 C-0.56202201 12.10852554 -0.69639018 16.5816782 -1 21 C-1.33 21 -1.66 21 -2 21 C-2.20177072 13.64657821 -2.21211746 7.05112439 0 0 Z " fill="#666666" transform="translate(29,91)"/>
<path d="M0 0 C0.763125 0.825 1.52625 1.65 2.3125 2.5 C4.75434142 5.34055197 4.75434142 5.34055197 8 5 C7.6875 6.9375 7.6875 6.9375 7 9 C6.01 9.33 5.02 9.66 4 10 C1.16625119 6.79663178 0.4794463 4.21912747 0 0 Z " fill="#D1A1A0" transform="translate(38,71)"/>
<path d="M0 0 C1.32 1.32 2.64 2.64 4 4 C3.68289062 4.56203125 3.36578125 5.1240625 3.0390625 5.703125 C1.93125475 8.15196317 1.61024601 10.08387855 1.375 12.75 C1.30023438 13.54921875 1.22546875 14.3484375 1.1484375 15.171875 C1.09945312 15.77515625 1.05046875 16.3784375 1 17 C0.67 17 0.34 17 0 17 C0 11.39 0 5.78 0 0 Z " fill="#D1D1D1" transform="translate(169,27)"/>
<path d="M0 0 C2.125 0.9375 2.125 0.9375 4 2 C3.01 2.99 2.02 3.98 1 5 C1.66 5.33 2.32 5.66 3 6 C3 6.66 3 7.32 3 8 C0.69 7.34 -1.62 6.68 -4 6 C-2.25 1.125 -2.25 1.125 0 0 Z " fill="#E7E7E7" transform="translate(68,112)"/>
<path d="M0 0 C2.375 -0.1875 2.375 -0.1875 5 0 C5.66 0.99 6.32 1.98 7 3 C6.67 3.99 6.34 4.98 6 6 C4.68 6 3.36 6 2 6 C1.34 4.02 0.68 2.04 0 0 Z " fill="#4B4B4B" transform="translate(158,147)"/>
<path d="M0 0 C2.31 0 4.62 0 7 0 C7.66 1.32 8.32 2.64 9 4 C5.625 4.125 5.625 4.125 2 4 C1.34 3.34 0.68 2.68 0 2 C0 1.34 0 0.68 0 0 Z " fill="#9F9F9F" transform="translate(123,126)"/>
<path d="M0 0 C0.33 0 0.66 0 1 0 C1.3690205 12.66970387 1.3690205 12.66970387 -1 18 C-1.66 17.01 -2.32 16.02 -3 15 C-2.37943989 13.31562256 -1.70710678 11.64991582 -1 10 C-0.83312552 7.41645782 -0.83312552 7.41645782 -1 5 C-1 2 -1 2 0 0 Z " fill="#797979" transform="translate(28,68)"/>
<path d="M0 0 C0.66 0.33 1.32 0.66 2 1 C1.6875 3.375 1.6875 3.375 1 6 C0.01 6.66 -0.98 7.32 -2 8 C-3.32 7.01 -4.64 6.02 -6 5 C-5.195625 4.54625 -4.39125 4.0925 -3.5625 3.625 C-0.91143428 2.25274335 -0.91143428 2.25274335 0 0 Z " fill="#EFEFEF" transform="translate(26,87)"/>
<path d="M0 0 C0.66 0.99 1.32 1.98 2 3 C1.071875 3.268125 0.14375 3.53625 -0.8125 3.8125 C-3.79513615 4.92367817 -5.11865457 5.52454549 -7 8 C-7.33 8.99 -7.66 9.98 -8 11 C-8.66 10.67 -9.32 10.34 -10 10 C-9.34 8.35 -8.68 6.7 -8 5 C-7.34 5 -6.68 5 -6 5 C-6 4.34 -6 3.68 -6 3 C-4.02 2.01 -2.04 1.02 0 0 Z " fill="#6F6F6F" transform="translate(55,32)"/>
<path d="M0 0 C2 0 4 0 6 0 C6 1.65 6 3.3 6 5 C3.69 4.67 1.38 4.34 -1 4 C-0.67 2.68 -0.34 1.36 0 0 Z " fill="#CACACA" transform="translate(167,145)"/>
<path d="M0 0 C0.33 0.66 0.66 1.32 1 2 C-2.53094302 3.20220203 -5.12898982 2.79532349 -8.75 2.0625 C-9.73484375 1.86785156 -10.7196875 1.67320313 -11.734375 1.47265625 C-12.48203125 1.31667969 -13.2296875 1.16070312 -14 1 C-14 0.67 -14 0.34 -14 0 C-8.97278473 -1.13112344 -5.01462597 -0.93493027 0 0 Z " fill="#C4C4C4" transform="translate(124,109)"/>
<path d="M0 0 C0.33 0 0.66 0 1 0 C1.33 4.95 1.66 9.9 2 15 C0.68 14.01 -0.64 13.02 -2 12 C-1.34 8.04 -0.68 4.08 0 0 Z " fill="#828282" transform="translate(22,43)"/>
<path d="M0 0 C0.66 1.32 1.32 2.64 2 4 C0.35 5.32 -1.3 6.64 -3 8 C-4.32 7.34 -5.64 6.68 -7 6 C-4 4 -4 4 0 4 C0 2.68 0 1.36 0 0 Z " fill="#595959" transform="translate(153,91)"/>
<path d="M0 0 C0.33 0 0.66 0 1 0 C0.67 2.97 0.34 5.94 0 9 C-0.99 8.67 -1.98 8.34 -3 8 C-2.25 2.25 -2.25 2.25 0 0 Z " fill="#F0F0F0" transform="translate(8,68)"/>
<path d="M0 0 C1.65 0.33 3.3 0.66 5 1 C5 2.32 5 3.64 5 5 C2.83125748 4.49396008 1.00032373 4.00016187 -1 3 C-0.67 2.01 -0.34 1.02 0 0 Z " fill="#565656" transform="translate(32,42)"/>
<path d="M0 0 C0.53625 0.37125 1.0725 0.7425 1.625 1.125 C0.635 2.61 0.635 2.61 -0.375 4.125 C-3.015 3.465 -5.655 2.805 -8.375 2.125 C-8.375 1.795 -8.375 1.465 -8.375 1.125 C-2.95961538 -1.09038462 -2.95961538 -1.09038462 0 0 Z " fill="#818181" transform="translate(60.375,33.875)"/>
<path d="M0 0 C0.99 0.66 1.98 1.32 3 2 C3 3.32 3 4.64 3 6 C-1.75 4.125 -1.75 4.125 -4 3 C-2.68 2.01 -1.36 1.02 0 0 Z " fill="#F1F1F1" transform="translate(30,27)"/>
<path d="M0 0 C1.65 0 3.3 0 5 0 C4.67 0.99 4.34 1.98 4 3 C3.34 3 2.68 3 2 3 C2.33 3.99 2.66 4.98 3 6 C2.01 6.33 1.02 6.66 0 7 C-0.93423645 3.98968256 -1.04449911 3.13349732 0 0 Z " fill="#E1E1E1" transform="translate(89,65)"/>
<path d="M0 0 C2.9375 0.75 2.9375 0.75 6 2 C6.875 4.125 6.875 4.125 7 6 C4.69 5.01 2.38 4.02 0 3 C0 2.01 0 1.02 0 0 Z " fill="#545454" transform="translate(139,127)"/>
<path d="M0 0 C1.65 0.33 3.3 0.66 5 1 C4.67 2.32 4.34 3.64 4 5 C1.03 4.505 1.03 4.505 -2 4 C-1.34 2.68 -0.68 1.36 0 0 Z " fill="#8B8B8B" transform="translate(131,127)"/>
<path d="M0 0 C0.33 0.66 0.66 1.32 1 2 C2.98 2 4.96 2 7 2 C7 2.33 7 2.66 7 3 C3.7 3.66 0.4 4.32 -3 5 C-3.66 4.01 -4.32 3.02 -5 2 C-3.35 2 -1.7 2 0 2 C0 1.34 0 0.68 0 0 Z " fill="#A8A8A8" transform="translate(73,122)"/>
<path d="M0 0 C1.485 0.99 1.485 0.99 3 2 C3.29296875 4.1640625 3.29296875 4.1640625 3.1875 6.625 C3.16042969 7.44226563 3.13335937 8.25953125 3.10546875 9.1015625 C3.07066406 9.72804688 3.03585938 10.35453125 3 11 C0.81024227 7.71536341 0.00193437 4.79303725 -1 1 C-0.67 0.67 -0.34 0.34 0 0 Z " fill="#CFCFCF" transform="translate(76,58)"/>
<path d="M0 0 C0.66 0 1.32 0 2 0 C2.33 1.98 2.66 3.96 3 6 C2.34 5.67 1.68 5.34 1 5 C0.34 5.66 -0.32 6.32 -1 7 C-1.33 5.35 -1.66 3.7 -2 2 C-1.34 2 -0.68 2 0 2 C0 1.34 0 0.68 0 0 Z " fill="#484848" transform="translate(156,88)"/>
<path d="M0 0 C0.99 0 1.98 0 3 0 C2.25 2.9375 2.25 2.9375 1 6 C-1.125 6.875 -1.125 6.875 -3 7 C-2.34 6.67 -1.68 6.34 -1 6 C-1.0309375 4.7934375 -1.0309375 4.7934375 -1.0625 3.5625 C-1 1 -1 1 0 0 Z " fill="#C89898" transform="translate(46,74)"/>
<path d="M0 0 C2.475 0.99 2.475 0.99 5 2 C5 1.34 5 0.68 5 0 C5.66 0 6.32 0 7 0 C5.86695008 3.39914975 4.87481525 4.05254451 2 6 C1.34 4.02 0.68 2.04 0 0 Z " fill="#C4C4C4" transform="translate(153,66)"/>
<path d="M0 0 C0.66 0.33 1.32 0.66 2 1 C1.25 3.9375 1.25 3.9375 0 7 C-2.125 7.875 -2.125 7.875 -4 8 C-3.50168276 4.31245243 -2.89932357 2.39509338 0 0 Z " fill="#E8E8E8" transform="translate(10,62)"/>
<path d="M0 0 C1.32 1.65 2.64 3.3 4 5 C3.34 6.32 2.68 7.64 2 9 C-0.29013653 5.5647952 -0.17842973 4.014669 0 0 Z " fill="#636363" transform="translate(65,42)"/>
<path d="M0 0 C2.475 0.99 2.475 0.99 5 2 C5 2.66 5 3.32 5 4 C2.69 4 0.38 4 -2 4 C-1.34 3.67 -0.68 3.34 0 3 C0 2.01 0 1.02 0 0 Z " fill="#4D4D4D" transform="translate(68,120)"/>
<path d="M0 0 C0.66 0.33 1.32 0.66 2 1 C1.6875 2.875 1.6875 2.875 1 5 C0.01 5.66 -0.98 6.32 -2 7 C-2.33 6.34 -2.66 5.68 -3 5 C-1.5625 2.375 -1.5625 2.375 0 0 Z " fill="#CFCFCF" transform="translate(45,134)"/>
<path d="M0 0 C2.64 0.33 5.28 0.66 8 1 C6.875 2.5625 6.875 2.5625 5 4 C1.8125 3.6875 1.8125 3.6875 -1 3 C-0.67 2.01 -0.34 1.02 0 0 Z " fill="#DDDDDD" transform="translate(66,92)"/>
<path d="M0 0 C0.99 0.33 1.98 0.66 3 1 C3.6875 3.0625 3.6875 3.0625 4 5 C3.01 5.66 2.02 6.32 1 7 C0.67 4.69 0.34 2.38 0 0 Z " fill="#6F7271" transform="translate(59,67)"/>
</svg>
